<svg viewBox="0 0 100 100" fill="none" xmlns="http://www.w3.org/2000/svg">
  <rect width="100" height="100" rx="20" fill="#ffffff"/>
  <path d="M50 15 C65 15, 80 25, 80 50 C80 75, 65 85, 50 85 C35 85, 20 75, 20 50 C20 25, 35 15, 50 15 Z" fill="#DCFCE7" />
  <path d="M48 85 L52 85 L52 70 C52 70 55 60 65 55 M50 70 C50 70 45 60 35 55 M50 70 L50 40 M50 60 C50 60 60 50 70 40 M50 60 C50 60 40 50 30 40" stroke="#15A362" stroke-width="8" stroke-linecap="round" />
  <circle cx="50" cy="30" r="10" fill="#15A362" />
</svg>
